<svg width="1501" height="1744" viewBox="0 0 1501 1744" fill="none" xmlns="http://www.w3.org/2000/svg">
<g opacity="0.5">
<path d="M1331.59 980.987C1331.43 869.819 1364.18 762.815 1400.56 660.466C1436.95 558.117 1477.68 456.556 1494.95 347.455C1506.04 277.289 1505.02 197.5 1464.73 142.652C1425.97 89.8566 1361.82 74.5681 1302.55 67.1916C1257.96 61.6443 1211.16 59.0864 1170.38 79.8626C1142.07 94.2884 1118.73 118.976 1091.74 136.376C997.87 197.113 877.955 160.588 781.903 101.561C736.836 73.884 693.64 41.463 645.992 20.5381C598.345 -0.386849 544.314 -8.968 497.285 12.3733C450.673 33.5213 414.214 195.261 391.109 246.525C344.095 350.629 4.02153 266.83 0.142336 384.78C-8.46608 645.873 377.203 592.401 196.057 1081.06C165.071 1156.11 50.9104 1361.53 196.057 1492.44C244.167 1535.83 344.493 1555.04 363.994 1628.35C409.964 1742.68 573.903 1774.43 614.974 1713.81C693.351 1589.1 715.787 1504.11 807.558 1462.77C858.08 1439.97 916.021 1459.63 964.719 1488.58C1069.21 1550.69 1162.81 1657.59 1279.68 1659.39C1359.93 1660.62 1438.23 1605.03 1473.11 1522C1509.65 1434.97 1500.25 1316.31 1432.15 1255.33C1362 1192.63 1331.7 1079.14 1331.59 980.987Z" fill="#C4C4C4"/>
<path d="M1331.59 980.987C1331.43 869.819 1364.18 762.815 1400.56 660.466C1436.95 558.117 1477.68 456.556 1494.95 347.455C1506.04 277.289 1505.02 197.5 1464.73 142.652C1425.97 89.8566 1361.82 74.5681 1302.55 67.1916C1257.96 61.6443 1211.16 59.0864 1170.38 79.8626C1142.07 94.2884 1118.73 118.976 1091.74 136.376C997.87 197.113 877.955 160.588 781.903 101.561C736.836 73.884 693.64 41.463 645.992 20.5381C598.345 -0.386849 544.314 -8.968 497.285 12.3733C450.673 33.5213 414.214 195.261 391.109 246.525C344.095 350.629 4.02153 266.83 0.142336 384.78C-8.46608 645.873 377.203 592.401 196.057 1081.06C165.071 1156.11 50.9104 1361.53 196.057 1492.44C244.167 1535.83 344.493 1555.04 363.994 1628.35C409.964 1742.68 573.903 1774.43 614.974 1713.81C693.351 1589.1 715.787 1504.11 807.558 1462.77C858.08 1439.97 916.021 1459.63 964.719 1488.58C1069.21 1550.69 1162.81 1657.59 1279.68 1659.39C1359.93 1660.62 1438.23 1605.03 1473.11 1522C1509.65 1434.97 1500.25 1316.31 1432.15 1255.33C1362 1192.63 1331.7 1079.14 1331.59 980.987Z" fill="url(#paint0_linear)"/>
</g>
<defs>
<linearGradient id="paint0_linear" x1="553.941" y1="-6.97071e-05" x2="928.569" y2="1859.34" gradientUnits="userSpaceOnUse">
<stop stop-color="#B6D0B4"/>
<stop offset="1" stop-color="#89A986"/>
</linearGradient>
</defs>
</svg>
